{
  "accessors": [
    {
      "bufferView": 1,
      "componentType": 5126,
      "count": 9171,
      "max": [
        25.399999618530273,
        -0.0,
        98.42500305175781
      ],
      "min": [
        -25.399999618530273,
        -9.121999740600586,
        -101.5999984741211
      ],
      "type": "VEC3"
    },
    {
      "bufferView": 1,
      "byteOffset": 110052,
      "componentType": 5126,
      "count": 9171,
      "max": [
        0.9999948143959045,
        0.9999762773513794,
        0.9999710917472839
      ],
      "min": [
        -0.9999986886978149,
        -0.9999862909317017,
        -0.9999995231628418
      ],
      "type": "VEC3"
    },
    {
      "bufferView": 0,
      "componentType": 5125,
      "count": 45024,
      "type": "SCALAR"
    }
  ],
  "asset": {
    "extras": {
      "author": "ssavage2024 (https://sketchfab.com/ssavage2024)",
      "license": "CC-BY-4.0 (http://creativecommons.org/licenses/by/4.0/)",
      "source": "https://sketchfab.com/3d-models/cobble-stone-path-40ft-dd-c3cb266ce4fb46a4a22a6d1623a593c5",
      "title": "Cobble Stone Path 40ft D&D"
    },
    "generator": "Sketchfab-14.59.0",
    "version": "2.0"
  },
  "bufferViews": [
    {
      "buffer": 0,
      "byteLength": 180096,
      "name": "floatBufferViews",
      "target": 34963
    },
    {
      "buffer": 0,
      "byteLength": 220104,
      "byteOffset": 180096,
      "byteStride": 12,
      "name": "floatBufferViews",
      "target": 34962
    }
  ],
  "buffers": [
    {
      "byteLength": 400200,
      "uri": "scene.bin"
    }
  ],
  "materials": [
    {
      "doubleSided": true,
      "name": "color_6383466",
      "pbrMetallicRoughness": {
        "baseColorFactor": [
          0.19672124814032585,
          0.19672124814032585,
          0.19672124814032585,
          1.0
        ],
        "metallicFactor": 0.0
      }
    }
  ],
  "meshes": [
    {
      "name": "Object_0",
      "primitives": [
        {
          "attributes": {
            "NORMAL": 1,
            "POSITION": 0
          },
          "indices": 2,
          "material": 0,
          "mode": 4
        }
      ]
    }
  ],
  "nodes": [
    {
      "children": [
        1
      ],
      "matrix": [
        1.0,
        0.0,
        0.0,
        0.0,
        0.0,
        -1.0,
        -4.440892098500626e-16,
        0.0,
        0.0,
        4.440892098500626e-16,
        -1.0,
        0.0,
        0.0,
        0.0,
        0.0,
        1.0
      ],
      "name": "Sketchfab_model"
    },
    {
      "children": [
        2
      ],
      "name": "tinker.obj.cleaner.materialmerger.gles"
    },
    {
      "mesh": 0,
      "name": "Object_2"
    }
  ],
  "scene": 0,
  "scenes": [
    {
      "name": "Sketchfab_Scene",
      "nodes": [
        0
      ]
    }
  ]
}
