{
  "accessors": [
    {
      "bufferView": 2,
      "componentType": 5126,
      "count": 1232,
      "max": [
        0.8958335518836975,
        0.8473169803619385,
        0.7054800391197205
      ],
      "min": [
        -0.8958335518836975,
        0.016972269862890244,
        -0.8958335518836975
      ],
      "type": "VEC3"
    },
    {
      "bufferView": 2,
      "byteOffset": 14784,
      "componentType": 5126,
      "count": 1232,
      "max": [
        1.0,
        1.0,
        1.0
      ],
      "min": [
        -1.0,
        -1.0,
        -1.0
      ],
      "type": "VEC3"
    },
    {
      "bufferView": 1,
      "componentType": 5126,
      "count": 1232,
      "max": [
        0.48472103476524353,
        1.000000238418579
      ],
      "min": [
        0.1250000149011612,
        0.0
      ],
      "type": "VEC2"
    },
    {
      "bufferView": 0,
      "componentType": 5125,
      "count": 5664,
      "type": "SCALAR"
    },
    {
      "bufferView": 2,
      "byteOffset": 29568,
      "componentType": 5126,
      "count": 17235,
      "max": [
        0.8932960629463196,
        0.9692807793617249,
        0.6860480904579163
      ],
      "min": [
        -0.8932960629463196,
        0.11660069227218628,
        -0.8932967782020569
      ],
      "type": "VEC3"
    },
    {
      "bufferView": 2,
      "byteOffset": 236388,
      "componentType": 5126,
      "count": 17235,
      "max": [
        1.0,
        0.9982656836509705,
        1.0
      ],
      "min": [
        -1.0,
        -0.999998927116394,
        -1.0
      ],
      "type": "VEC3"
    },
    {
      "bufferView": 1,
      "byteOffset": 9856,
      "componentType": 5126,
      "count": 17235,
      "max": [
        0.4847210645675659,
        0.7500002384185791
      ],
      "min": [
        0.3863053619861603,
        0.0
      ],
      "type": "VEC2"
    },
    {
      "bufferView": 0,
      "byteOffset": 22656,
      "componentType": 5125,
      "count": 78144,
      "type": "SCALAR"
    },
    {
      "bufferView": 2,
      "byteOffset": 443208,
      "componentType": 5126,
      "count": 1960,
      "max": [
        0.7689379453659058,
        0.15194176137447357,
        0.7173152565956116
      ],
      "min": [
        -0.7689379453659058,
        -0.15194176137447357,
        -0.7689379453659058
      ],
      "type": "VEC3"
    },
    {
      "bufferView": 2,
      "byteOffset": 466728,
      "componentType": 5126,
      "count": 1960,
      "max": [
        1.0,
        1.0,
        1.0
      ],
      "min": [
        -1.0,
        -1.0,
        -1.0
      ],
      "type": "VEC3"
    },
    {
      "bufferView": 1,
      "byteOffset": 147736,
      "componentType": 5126,
      "count": 1960,
      "max": [
        0.3815247416496277,
        1.000000238418579
      ],
      "min": [
        0.1250000149011612,
        0.0
      ],
      "type": "VEC2"
    },
    {
      "bufferView": 0,
      "byteOffset": 335232,
      "componentType": 5125,
      "count": 9216,
      "type": "SCALAR"
    },
    {
      "bufferView": 2,
      "byteOffset": 490248,
      "componentType": 5126,
      "count": 272,
      "max": [
        0.5977823138237,
        0.04462599754333496,
        0.6753613352775574
      ],
      "min": [
        -0.5977823138237,
        -0.3899936079978943,
        -0.6125093102455139
      ],
      "type": "VEC3"
    },
    {
      "bufferView": 2,
      "byteOffset": 493512,
      "componentType": 5126,
      "count": 272,
      "max": [
        0.9894782900810242,
        1.0,
        0.9894781112670898
      ],
      "min": [
        -0.9894782900810242,
        -1.0,
        -0.9894781112670898
      ],
      "type": "VEC3"
    },
    {
      "bufferView": 1,
      "byteOffset": 163416,
      "componentType": 5126,
      "count": 272,
      "max": [
        1.0,
        1.0
      ],
      "min": [
        0.0,
        0.01000000536441803
      ],
      "type": "VEC2"
    },
    {
      "bufferView": 0,
      "byteOffset": 372096,
      "componentType": 5125,
      "count": 768,
      "type": "SCALAR"
    },
    {
      "bufferView": 2,
      "byteOffset": 496776,
      "componentType": 5126,
      "count": 6004,
      "max": [
        0.9429412484169006,
        0.552000105381012,
        0.9446173906326294
      ],
      "min": [
        -0.9422706365585327,
        -0.49358096718788147,
        -0.9442049264907837
      ],
      "type": "VEC3"
    },
    {
      "bufferView": 2,
      "byteOffset": 568824,
      "componentType": 5126,
      "count": 6004,
      "max": [
        0.9999629259109497,
        0.9999998807907104,
        0.9999783039093018
      ],
      "min": [
        -0.9999624490737915,
        -1.0,
        -0.9999774694442749
      ],
      "type": "VEC3"
    },
    {
      "bufferView": 1,
      "byteOffset": 165592,
      "componentType": 5126,
      "count": 6004,
      "max": [
        1.0000001192092896,
        1.0000001192092896
      ],
      "min": [
        0.0,
        0.0
      ],
      "type": "VEC2"
    },
    {
      "bufferView": 0,
      "byteOffset": 375168,
      "componentType": 5125,
      "count": 29232,
      "type": "SCALAR"
    }
  ],
  "asset": {
    "extras": {
      "author": "PatelDev (https://sketchfab.com/PatelDev)",
      "license": "CC-BY-4.0 (http://creativecommons.org/licenses/by/4.0/)",
      "source": "https://sketchfab.com/3d-models/sofa-chair-0e8e009f398249b9bc13e8ff7078530a",
      "title": "Sofa Chair"
    },
    "generator": "Sketchfab-12.68.0",
    "version": "2.0"
  },
  "bufferViews": [
    {
      "buffer": 0,
      "byteLength": 492096,
      "name": "floatBufferViews",
      "target": 34963
    },
    {
      "buffer": 0,
      "byteLength": 213624,
      "byteOffset": 492096,
      "byteStride": 8,
      "name": "floatBufferViews",
      "target": 34962
    },
    {
      "buffer": 0,
      "byteLength": 640872,
      "byteOffset": 705720,
      "byteStride": 12,
      "name": "floatBufferViews",
      "target": 34962
    }
  ],
  "buffers": [
    {
      "byteLength": 1346592,
      "uri": "scene.bin"
    }
  ],
  "materials": [
    {
      "doubleSided": true,
      "name": "material_0",
      "pbrMetallicRoughness": {
        "metallicFactor": 0.0,
        "roughnessFactor": 0.6
      }
    },
    {
      "doubleSided": true,
      "name": "Material.001",
      "pbrMetallicRoughness": {
        "baseColorFactor": [
          0.0022657916442304898,
          0.08091015391857498,
          0.059709972811299916,
          1.0
        ],
        "metallicFactor": 0.0
      }
    },
    {
      "doubleSided": true,
      "name": "Material.002",
      "pbrMetallicRoughness": {
        "baseColorFactor": [
          0.8,
          0.8,
          0.8,
          1.0
        ],
        "roughnessFactor": 0.0
      }
    }
  ],
  "meshes": [
    {
      "name": "Object_0",
      "primitives": [
        {
          "attributes": {
            "NORMAL": 1,
            "POSITION": 0,
            "TEXCOORD_0": 2
          },
          "indices": 3,
          "material": 1,
          "mode": 4
        }
      ]
    },
    {
      "name": "Object_1",
      "primitives": [
        {
          "attributes": {
            "NORMAL": 5,
            "POSITION": 4,
            "TEXCOORD_0": 6
          },
          "indices": 7,
          "material": 1,
          "mode": 4
        }
      ]
    },
    {
      "name": "Object_2",
      "primitives": [
        {
          "attributes": {
            "NORMAL": 9,
            "POSITION": 8,
            "TEXCOORD_0": 10
          },
          "indices": 11,
          "material": 1,
          "mode": 4
        }
      ]
    },
    {
      "name": "Object_3",
      "primitives": [
        {
          "attributes": {
            "NORMAL": 13,
            "POSITION": 12,
            "TEXCOORD_0": 14
          },
          "indices": 15,
          "material": 2,
          "mode": 4
        }
      ]
    },
    {
      "name": "Object_4",
      "primitives": [
        {
          "attributes": {
            "NORMAL": 17,
            "POSITION": 16,
            "TEXCOORD_0": 18
          },
          "indices": 19,
          "material": 0,
          "mode": 4
        }
      ]
    }
  ],
  "nodes": [
    {
      "children": [
        1
      ],
      "matrix": [
        1.0,
        0.0,
        0.0,
        0.0,
        0.0,
        2.220446049250313e-16,
        -1.0,
        0.0,
        0.0,
        1.0,
        2.220446049250313e-16,
        0.0,
        0.0,
        0.0,
        0.0,
        1.0
      ],
      "name": "Sketchfab_model"
    },
    {
      "children": [
        2
      ],
      "name": "root"
    },
    {
      "children": [
        3,
        5,
        7,
        9,
        11
      ],
      "matrix": [
        1.0,
        0.0,
        0.0,
        0.0,
        0.0,
        2.220446049250313e-16,
        1.0,
        0.0,
        0.0,
        -1.0,
        2.220446049250313e-16,
        0.0,
        0.0,
        0.0,
        0.0,
        1.0
      ],
      "name": "GLTF_SceneRootNode"
    },
    {
      "children": [
        4
      ],
      "matrix": [
        0.9440000057220459,
        0.0,
        0.0,
        0.0,
        0.0,
        1.0,
        0.0,
        0.0,
        0.0,
        0.0,
        1.0,
        0.0,
        0.0,
        0.0,
        0.0,
        1.0
      ],
      "name": "Cube_2"
    },
    {
      "mesh": 0,
      "name": "Object_4"
    },
    {
      "children": [
        6
      ],
      "matrix": [
        0.9343652129173279,
        0.0,
        0.0,
        0.0,
        0.0,
        0.9897936582565308,
        0.0,
        0.0,
        0.0,
        0.0,
        0.9897936582565308,
        0.0,
        0.0,
        0.0,
        0.0,
        1.0
      ],
      "name": "Cube.001_3"
    },
    {
      "mesh": 1,
      "name": "Object_6"
    },
    {
      "children": [
        8
      ],
      "matrix": [
        0.8627631664276123,
        0.0,
        0.0,
        0.0,
        0.0,
        1.0201667547225952,
        0.0,
        0.0,
        0.0,
        0.0,
        0.9139439463615417,
        0.0,
        0.0,
        0.2289630025625229,
        0.03878900036215782,
        1.0
      ],
      "name": "Cube.002_4"
    },
    {
      "mesh": 2,
      "name": "Object_8"
    },
    {
      "children": [
        10
      ],
      "matrix": [
        1.0,
        0.0,
        0.0,
        0.0,
        0.0,
        1.0,
        0.0,
        0.0,
        0.0,
        0.0,
        1.0,
        0.0,
        0.0,
        0.017458999529480934,
        0.0,
        1.0
      ],
      "name": "Cylinder_5"
    },
    {
      "mesh": 3,
      "name": "Object_10"
    },
    {
      "children": [
        12
      ],
      "matrix": [
        0.3974400644678735,
        -0.018436719037319135,
        -0.03744211097014356,
        0.0,
        0.030478900558966248,
        0.09471688921445061,
        0.276887901347139,
        0.0,
        -0.00469676931766095,
        -0.335079133436556,
        0.11513975644893304,
        0.0,
        0.006374012678861618,
        0.6778419613838196,
        -0.47841647267341614,
        1.0
      ],
      "name": "Plane_6"
    },
    {
      "mesh": 4,
      "name": "Object_12"
    }
  ],
  "scene": 0,
  "scenes": [
    {
      "name": "Sketchfab_Scene",
      "nodes": [
        0
      ]
    }
  ]
}
