{
  "accessors": [
    {
      "bufferView": 2,
      "componentType": 5126,
      "count": 24663,
      "max": [
        34.8101921081543,
        74.40674591064453,
        38.19317626953125
      ],
      "min": [
        -72.02821350097656,
        0.01004437543451786,
        -23.277406692504883
      ],
      "type": "VEC3"
    },
    {
      "bufferView": 2,
      "byteOffset": 295956,
      "componentType": 5126,
      "count": 24663,
      "max": [
        0.9998688697814941,
        0.9999633431434631,
        0.9999703168869019
      ],
      "min": [
        -0.999961793422699,
        -1.0,
        -0.9999435544013977
      ],
      "type": "VEC3"
    },
    {
      "bufferView": 1,
      "componentType": 5126,
      "count": 24663,
      "max": [
        0.9980080127716064,
        0.9832370281219482
      ],
      "min": [
        0.0019920000340789557,
        0.0019630000460892916
      ],
      "type": "VEC2"
    },
    {
      "bufferView": 0,
      "componentType": 5125,
      "count": 101298,
      "type": "SCALAR"
    }
  ],
  "asset": {
    "extras": {
      "author": "Frank.Zwick (https://sketchfab.com/Frank_Zwick)",
      "license": "CC-BY-NC-4.0 (http://creativecommons.org/licenses/by-nc/4.0/)",
      "source": "https://sketchfab.com/3d-models/dog-a-1of6-for-free-happy-new-year-2022-59558a57beaa4bd681eaed98a03dbea0",
      "title": "DOG A - 1of6 - for free // happy new year 2022"
    },
    "generator": "Sketchfab-12.68.0",
    "version": "2.0"
  },
  "bufferViews": [
    {
      "buffer": 0,
      "byteLength": 405192,
      "name": "floatBufferViews",
      "target": 34963
    },
    {
      "buffer": 0,
      "byteLength": 197304,
      "byteOffset": 405192,
      "byteStride": 8,
      "name": "floatBufferViews",
      "target": 34962
    },
    {
      "buffer": 0,
      "byteLength": 591912,
      "byteOffset": 602496,
      "byteStride": 12,
      "name": "floatBufferViews",
      "target": 34962
    }
  ],
  "buffers": [
    {
      "byteLength": 1194408,
      "uri": "scene.bin"
    }
  ],
  "extensionsUsed": [
    "KHR_materials_unlit"
  ],
  "images": [
    {
      "uri": "textures/mat27_baseColor.jpeg"
    }
  ],
  "materials": [
    {
      "doubleSided": true,
      "extensions": {
        "KHR_materials_unlit": {}
      },
      "name": "mat27",
      "pbrMetallicRoughness": {
        "baseColorTexture": {
          "index": 0
        },
        "metallicFactor": 0.0
      }
    }
  ],
  "meshes": [
    {
      "name": "DOG_Anton_E_mat27_0",
      "primitives": [
        {
          "attributes": {
            "NORMAL": 1,
            "POSITION": 0,
            "TEXCOORD_0": 2
          },
          "indices": 3,
          "material": 0,
          "mode": 4
        }
      ]
    }
  ],
  "nodes": [
    {
      "children": [
        1
      ],
      "matrix": [
        1.0,
        0.0,
        0.0,
        0.0,
        0.0,
        2.220446049250313e-16,
        -1.0,
        0.0,
        0.0,
        1.0,
        2.220446049250313e-16,
        0.0,
        0.0,
        0.0,
        0.0,
        1.0
      ],
      "name": "Sketchfab_model"
    },
    {
      "children": [
        2
      ],
      "matrix": [
        0.009999999776482582,
        0.0,
        0.0,
        0.0,
        0.0,
        0.0,
        0.009999999776482582,
        0.0,
        0.0,
        -0.009999999776482582,
        0.0,
        0.0,
        0.0,
        0.0,
        0.0,
        1.0
      ],
      "name": "cc69d808603f456e9223d2ab1023e003.fbx"
    },
    {
      "children": [
        3
      ],
      "name": "RootNode"
    },
    {
      "children": [
        4
      ],
      "name": "DOG_Anton_E"
    },
    {
      "mesh": 0,
      "name": "DOG_Anton_E_mat27_0"
    }
  ],
  "samplers": [
    {
      "magFilter": 9729,
      "minFilter": 9987,
      "wrapS": 10497,
      "wrapT": 10497
    }
  ],
  "scene": 0,
  "scenes": [
    {
      "name": "Sketchfab_Scene",
      "nodes": [
        0
      ]
    }
  ],
  "textures": [
    {
      "sampler": 0,
      "source": 0
    }
  ]
}
