{
  "accessors": [
    {
      "bufferView": 2,
      "componentType": 5126,
      "count": 3036,
      "max": [
        3.180358409881592,
        0.23749606311321259,
        0.42767107486724854
      ],
      "min": [
        -1.2152373790740967,
        -0.8755879998207092,
        -8.459320068359375
      ],
      "type": "VEC3"
    },
    {
      "bufferView": 2,
      "byteOffset": 36432,
      "componentType": 5126,
      "count": 3036,
      "max": [
        1.0,
        0.9999992847442627,
        0.9989176392555237
      ],
      "min": [
        -0.9999997615814209,
        -0.9999992847442627,
        -1.0
      ],
      "type": "VEC3"
    },
    {
      "bufferView": 3,
      "componentType": 5126,
      "count": 3036,
      "max": [
        1.0,
        0.9999998807907104,
        0.7952334880828857,
        1.0
      ],
      "min": [
        -0.9999996423721313,
        -1.0,
        -0.9999797940254211,
        1.0
      ],
      "type": "VEC4"
    },
    {
      "bufferView": 1,
      "componentType": 5126,
      "count": 3036,
      "max": [
        0.9870644807815552,
        0.9867730736732483
      ],
      "min": [
        0.01173468865454197,
        0.024486027657985687
      ],
      "type": "VEC2"
    },
    {
      "bufferView": 1,
      "byteOffset": 24288,
      "componentType": 5126,
      "count": 3036,
      "max": [
        0.9870644807815552,
        0.9867730736732483
      ],
      "min": [
        0.01173468865454197,
        0.024486027657985687
      ],
      "type": "VEC2"
    },
    {
      "bufferView": 0,
      "componentType": 5125,
      "count": 16128,
      "type": "SCALAR"
    }
  ],
  "asset": {
    "extras": {
      "author": "assetfactory (https://sketchfab.com/assetfactory)",
      "license": "CC-BY-4.0 (http://creativecommons.org/licenses/by/4.0/)",
      "source": "https://sketchfab.com/3d-models/rainbow-pool-float-a51c2ca7535a4dcbb4cf708a21ad88c5",
      "title": "Rainbow pool float"
    },
    "generator": "Sketchfab-13.68.0",
    "version": "2.0"
  },
  "bufferViews": [
    {
      "buffer": 0,
      "byteLength": 64512,
      "name": "floatBufferViews",
      "target": 34963
    },
    {
      "buffer": 0,
      "byteLength": 48576,
      "byteOffset": 64512,
      "byteStride": 8,
      "name": "floatBufferViews",
      "target": 34962
    },
    {
      "buffer": 0,
      "byteLength": 72864,
      "byteOffset": 113088,
      "byteStride": 12,
      "name": "floatBufferViews",
      "target": 34962
    },
    {
      "buffer": 0,
      "byteLength": 48576,
      "byteOffset": 185952,
      "byteStride": 16,
      "name": "floatBufferViews",
      "target": 34962
    }
  ],
  "buffers": [
    {
      "byteLength": 234528,
      "uri": "scene.bin"
    }
  ],
  "images": [
    {
      "uri": "textures/PoolFloat3_baseColor.png"
    },
    {
      "uri": "textures/PoolFloat3_normal.png"
    }
  ],
  "materials": [
    {
      "doubleSided": true,
      "name": "PoolFloat3",
      "normalTexture": {
        "index": 1
      },
      "pbrMetallicRoughness": {
        "baseColorTexture": {
          "index": 0
        },
        "metallicFactor": 0.0,
        "roughnessFactor": 0.1788854381999832
      }
    }
  ],
  "meshes": [
    {
      "name": "Cube_PoolFloat3_0",
      "primitives": [
        {
          "attributes": {
            "NORMAL": 1,
            "POSITION": 0,
            "TANGENT": 2,
            "TEXCOORD_0": 3,
            "TEXCOORD_1": 4
          },
          "indices": 5,
          "material": 0,
          "mode": 4
        }
      ]
    }
  ],
  "nodes": [
    {
      "children": [
        1
      ],
      "matrix": [
        1.0,
        0.0,
        0.0,
        0.0,
        0.0,
        3.828568672208042e-16,
        -1.0,
        0.0,
        0.0,
        1.0,
        3.828568672208042e-16,
        0.0,
        0.0,
        0.0,
        0.0,
        1.0
      ],
      "name": "Sketchfab_model"
    },
    {
      "children": [
        2
      ],
      "matrix": [
        0.009999999776482582,
        0.0,
        0.0,
        0.0,
        0.0,
        0.0,
        0.009999999776482582,
        0.0,
        0.0,
        -0.009999999776482582,
        0.0,
        0.0,
        0.0,
        0.0,
        0.0,
        1.0
      ],
      "name": "PoolFloat3.fbx"
    },
    {
      "children": [
        3
      ],
      "name": "RootNode"
    },
    {
      "children": [
        4
      ],
      "matrix": [
        100.0,
        2.220446313948109e-14,
        -2.220446313948109e-14,
        0.0,
        2.2204466492261492e-14,
        -99.99999999999889,
        1.5099579909783709e-05,
        0.0,
        -2.2204459786700185e-14,
        -1.5099579909783709e-05,
        -99.99999999999889,
        0.0,
        -64.89820861816406,
        22.205137252807617,
        -254.99957275390625,
        1.0
      ],
      "name": "Cube"
    },
    {
      "mesh": 0,
      "name": "Cube_PoolFloat3_0"
    }
  ],
  "samplers": [
    {
      "magFilter": 9729,
      "minFilter": 9987,
      "wrapS": 10497,
      "wrapT": 10497
    }
  ],
  "scene": 0,
  "scenes": [
    {
      "name": "Sketchfab_Scene",
      "nodes": [
        0
      ]
    }
  ],
  "textures": [
    {
      "sampler": 0,
      "source": 0
    },
    {
      "sampler": 0,
      "source": 1
    }
  ]
}
