{
  "accessors": [
    {
      "bufferView": 2,
      "componentType": 5126,
      "count": 1223,
      "max": [
        9.43747329711914,
        21.081632614135742,
        9.437470436096191
      ],
      "min": [
        -9.437446594238281,
        6.162960529327393,
        -9.437471389770508
      ],
      "type": "VEC3"
    },
    {
      "bufferView": 2,
      "byteOffset": 14676,
      "componentType": 5126,
      "count": 1223,
      "max": [
        1.0,
        1.0,
        1.0
      ],
      "min": [
        -1.0,
        -1.0,
        -1.0
      ],
      "type": "VEC3"
    },
    {
      "bufferView": 3,
      "componentType": 5126,
      "count": 1223,
      "max": [
        1.0,
        1.0,
        1.0,
        1.0
      ],
      "min": [
        -1.0,
        -0.9401186108589172,
        -1.0,
        -1.0
      ],
      "type": "VEC4"
    },
    {
      "bufferView": 1,
      "componentType": 5126,
      "count": 1223,
      "max": [
        0.9980080127716064,
        0.957922637462616
      ],
      "min": [
        0.0019919872283935547,
        0.0019120275974273682
      ],
      "type": "VEC2"
    },
    {
      "bufferView": 0,
      "componentType": 5125,
      "count": 2544,
      "type": "SCALAR"
    },
    {
      "bufferView": 2,
      "byteOffset": 29352,
      "componentType": 5126,
      "count": 1724,
      "max": [
        5.205959796905518,
        6.369045257568359,
        5.205963134765625
      ],
      "min": [
        -5.205963134765625,
        0.02876901626586914,
        -5.205963134765625
      ],
      "type": "VEC3"
    },
    {
      "bufferView": 2,
      "byteOffset": 50040,
      "componentType": 5126,
      "count": 1724,
      "max": [
        1.0,
        1.0,
        1.0
      ],
      "min": [
        -1.0,
        -1.0,
        -1.0
      ],
      "type": "VEC3"
    },
    {
      "bufferView": 3,
      "byteOffset": 19568,
      "componentType": 5126,
      "count": 1724,
      "max": [
        1.0,
        1.0,
        1.0,
        1.0
      ],
      "min": [
        -0.9999871850013733,
        -1.0,
        -1.0,
        1.0
      ],
      "type": "VEC4"
    },
    {
      "bufferView": 1,
      "byteOffset": 9784,
      "componentType": 5126,
      "count": 1724,
      "max": [
        0.9882970452308655,
        0.998008131980896
      ],
      "min": [
        0.0019726541358977556,
        0.0019920319318771362
      ],
      "type": "VEC2"
    },
    {
      "bufferView": 0,
      "byteOffset": 10176,
      "componentType": 5125,
      "count": 3936,
      "type": "SCALAR"
    },
    {
      "bufferView": 2,
      "byteOffset": 70728,
      "componentType": 5126,
      "count": 1535,
      "max": [
        2.110102653503418,
        7.359433174133301,
        8.879735946655273
      ],
      "min": [
        -2.106640577316284,
        -0.039696842432022095,
        4.076529502868652
      ],
      "type": "VEC3"
    },
    {
      "bufferView": 2,
      "byteOffset": 89148,
      "componentType": 5126,
      "count": 1535,
      "max": [
        1.0,
        1.0,
        1.0
      ],
      "min": [
        -1.0,
        -1.0,
        -1.0
      ],
      "type": "VEC3"
    },
    {
      "bufferView": 3,
      "byteOffset": 47152,
      "componentType": 5126,
      "count": 1535,
      "max": [
        1.0,
        1.0,
        1.0,
        1.0
      ],
      "min": [
        -0.858924150466919,
        -1.0,
        -1.0,
        1.0
      ],
      "type": "VEC4"
    },
    {
      "bufferView": 1,
      "byteOffset": 23576,
      "componentType": 5126,
      "count": 1535,
      "max": [
        0.9435884952545166,
        0.998008131980896
      ],
      "min": [
        0.001883387565612793,
        0.00199204683303833
      ],
      "type": "VEC2"
    },
    {
      "bufferView": 0,
      "byteOffset": 25920,
      "componentType": 5125,
      "count": 3648,
      "type": "SCALAR"
    }
  ],
  "asset": {
    "extras": {
      "author": "Jayson Stauffer (https://sketchfab.com/JaysonStauffer)",
      "license": "CC-BY-4.0 (http://creativecommons.org/licenses/by/4.0/)",
      "source": "https://sketchfab.com/3d-models/beach-table-e559392994e04527b3f5ee35a8c3c418",
      "title": "Beach table"
    },
    "generator": "Sketchfab-12.68.0",
    "version": "2.0"
  },
  "bufferViews": [
    {
      "buffer": 0,
      "byteLength": 40512,
      "name": "floatBufferViews",
      "target": 34963
    },
    {
      "buffer": 0,
      "byteLength": 35856,
      "byteOffset": 40512,
      "byteStride": 8,
      "name": "floatBufferViews",
      "target": 34962
    },
    {
      "buffer": 0,
      "byteLength": 107568,
      "byteOffset": 76368,
      "byteStride": 12,
      "name": "floatBufferViews",
      "target": 34962
    },
    {
      "buffer": 0,
      "byteLength": 71712,
      "byteOffset": 183936,
      "byteStride": 16,
      "name": "floatBufferViews",
      "target": 34962
    }
  ],
  "buffers": [
    {
      "byteLength": 255648,
      "uri": "scene.bin"
    }
  ],
  "images": [
    {
      "uri": "textures/lambert1_baseColor.png"
    },
    {
      "uri": "textures/lambert1_metallicRoughness.png"
    },
    {
      "uri": "textures/lambert1_normal.png"
    },
    {
      "uri": "textures/lambert3_baseColor.png"
    },
    {
      "uri": "textures/lambert3_metallicRoughness.png"
    },
    {
      "uri": "textures/lambert3_normal.png"
    },
    {
      "uri": "textures/lambert4_baseColor.png"
    },
    {
      "uri": "textures/lambert4_metallicRoughness.png"
    },
    {
      "uri": "textures/lambert4_normal.png"
    }
  ],
  "materials": [
    {
      "doubleSided": true,
      "name": "lambert1",
      "normalTexture": {
        "index": 2
      },
      "pbrMetallicRoughness": {
        "baseColorTexture": {
          "index": 0
        },
        "metallicFactor": 0.0,
        "metallicRoughnessTexture": {
          "index": 1
        }
      }
    },
    {
      "doubleSided": true,
      "name": "lambert3",
      "normalTexture": {
        "index": 5
      },
      "pbrMetallicRoughness": {
        "baseColorTexture": {
          "index": 3
        },
        "metallicFactor": 0.0,
        "metallicRoughnessTexture": {
          "index": 4
        }
      }
    },
    {
      "doubleSided": true,
      "name": "lambert4",
      "normalTexture": {
        "index": 8
      },
      "pbrMetallicRoughness": {
        "baseColorTexture": {
          "index": 6
        },
        "metallicRoughnessTexture": {
          "index": 7
        }
      }
    }
  ],
  "meshes": [
    {
      "name": "pCone2_lambert1_0",
      "primitives": [
        {
          "attributes": {
            "NORMAL": 1,
            "POSITION": 0,
            "TANGENT": 2,
            "TEXCOORD_0": 3
          },
          "indices": 4,
          "material": 0,
          "mode": 4
        }
      ]
    },
    {
      "name": "pCylinder7_lambert3_0",
      "primitives": [
        {
          "attributes": {
            "NORMAL": 6,
            "POSITION": 5,
            "TANGENT": 7,
            "TEXCOORD_0": 8
          },
          "indices": 9,
          "material": 1,
          "mode": 4
        }
      ]
    },
    {
      "name": "pCylinder9_lambert4_0",
      "primitives": [
        {
          "attributes": {
            "NORMAL": 11,
            "POSITION": 10,
            "TANGENT": 12,
            "TEXCOORD_0": 13
          },
          "indices": 14,
          "material": 2,
          "mode": 4
        }
      ]
    }
  ],
  "nodes": [
    {
      "children": [
        1
      ],
      "matrix": [
        1.0,
        0.0,
        0.0,
        0.0,
        0.0,
        2.220446049250313e-16,
        -1.0,
        0.0,
        0.0,
        1.0,
        2.220446049250313e-16,
        0.0,
        0.0,
        0.0,
        0.0,
        1.0
      ],
      "name": "Sketchfab_model"
    },
    {
      "children": [
        2
      ],
      "matrix": [
        1.0,
        0.0,
        0.0,
        0.0,
        0.0,
        0.0,
        1.0,
        0.0,
        0.0,
        -1.0,
        0.0,
        0.0,
        0.0,
        0.0,
        0.0,
        1.0
      ],
      "name": "7d9e84c3dcac4618ab17f8c4cbae22af.fbx"
    },
    {
      "children": [
        3,
        5,
        7
      ],
      "name": "RootNode"
    },
    {
      "children": [
        4
      ],
      "name": "pCone2"
    },
    {
      "mesh": 0,
      "name": "pCone2_lambert1_0"
    },
    {
      "children": [
        6
      ],
      "name": "pCylinder7"
    },
    {
      "mesh": 1,
      "name": "pCylinder7_lambert3_0"
    },
    {
      "children": [
        8
      ],
      "name": "pCylinder9"
    },
    {
      "mesh": 2,
      "name": "pCylinder9_lambert4_0"
    }
  ],
  "samplers": [
    {
      "magFilter": 9729,
      "minFilter": 9987,
      "wrapS": 10497,
      "wrapT": 10497
    }
  ],
  "scene": 0,
  "scenes": [
    {
      "name": "Sketchfab_Scene",
      "nodes": [
        0
      ]
    }
  ],
  "textures": [
    {
      "sampler": 0,
      "source": 0
    },
    {
      "sampler": 0,
      "source": 1
    },
    {
      "sampler": 0,
      "source": 2
    },
    {
      "sampler": 0,
      "source": 3
    },
    {
      "sampler": 0,
      "source": 4
    },
    {
      "sampler": 0,
      "source": 5
    },
    {
      "sampler": 0,
      "source": 6
    },
    {
      "sampler": 0,
      "source": 7
    },
    {
      "sampler": 0,
      "source": 8
    }
  ]
}
