{
  "accessors": [
    {
      "bufferView": 2,
      "componentType": 5126,
      "count": 2059,
      "max": [
        1.7976042032241821,
        3.101445198059082,
        2.0734071731567383
      ],
      "min": [
        -0.9631688594818115,
        -1.3842068910598755,
        -2.0736024379730225
      ],
      "type": "VEC3"
    },
    {
      "bufferView": 2,
      "byteOffset": 24708,
      "componentType": 5126,
      "count": 2059,
      "max": [
        0.9999955892562866,
        0.9999849200248718,
        0.9996228218078613
      ],
      "min": [
        -0.999963104724884,
        -0.9986909627914429,
        -0.9989653825759888
      ],
      "type": "VEC3"
    },
    {
      "bufferView": 3,
      "componentType": 5126,
      "count": 2059,
      "max": [
        0.9999967813491821,
        0.9948098659515381,
        0.999660849571228,
        1.0
      ],
      "min": [
        -0.9998918175697327,
        -0.9522874355316162,
        -0.9934009909629822,
        -1.0
      ],
      "type": "VEC4"
    },
    {
      "bufferView": 1,
      "componentType": 5126,
      "count": 2059,
      "max": [
        0.9960623979568481,
        0.9281338453292847
      ],
      "min": [
        0.003937482833862305,
        0.003937482833862305
      ],
      "type": "VEC2"
    },
    {
      "bufferView": 1,
      "byteOffset": 16472,
      "componentType": 5126,
      "count": 2059,
      "max": [
        0.9960623979568481,
        0.9281338453292847
      ],
      "min": [
        0.003937482833862305,
        0.003937482833862305
      ],
      "type": "VEC2"
    },
    {
      "bufferView": 0,
      "componentType": 5125,
      "count": 8592,
      "type": "SCALAR"
    }
  ],
  "asset": {
    "extras": {
      "author": "stealth86 (https://sketchfab.com/stealth86)",
      "license": "CC-BY-4.0 (http://creativecommons.org/licenses/by/4.0/)",
      "source": "https://sketchfab.com/3d-models/duck-floatie-c8f58c34099d4da49d0b491be5039025",
      "title": "Duck Floatie"
    },
    "generator": "Sketchfab-12.92.0",
    "version": "2.0"
  },
  "bufferViews": [
    {
      "buffer": 0,
      "byteLength": 34368,
      "name": "floatBufferViews",
      "target": 34963
    },
    {
      "buffer": 0,
      "byteLength": 32944,
      "byteOffset": 34368,
      "byteStride": 8,
      "name": "floatBufferViews",
      "target": 34962
    },
    {
      "buffer": 0,
      "byteLength": 49416,
      "byteOffset": 67312,
      "byteStride": 12,
      "name": "floatBufferViews",
      "target": 34962
    },
    {
      "buffer": 0,
      "byteLength": 32944,
      "byteOffset": 116728,
      "byteStride": 16,
      "name": "floatBufferViews",
      "target": 34962
    }
  ],
  "buffers": [
    {
      "byteLength": 149672,
      "uri": "scene.bin"
    }
  ],
  "images": [
    {
      "uri": "textures/Material.001_baseColor.png"
    },
    {
      "uri": "textures/Material.001_normal.png"
    }
  ],
  "materials": [
    {
      "doubleSided": true,
      "name": "Material.001",
      "normalTexture": {
        "index": 1
      },
      "pbrMetallicRoughness": {
        "baseColorTexture": {
          "index": 0
        },
        "metallicFactor": 0.0,
        "roughnessFactor": 0.38247735612146627
      }
    }
  ],
  "meshes": [
    {
      "name": "BezierCurve_Material.001_0",
      "primitives": [
        {
          "attributes": {
            "NORMAL": 1,
            "POSITION": 0,
            "TANGENT": 2,
            "TEXCOORD_0": 3,
            "TEXCOORD_1": 4
          },
          "indices": 5,
          "material": 0,
          "mode": 4
        }
      ]
    }
  ],
  "nodes": [
    {
      "children": [
        1
      ],
      "matrix": [
        1.0,
        0.0,
        0.0,
        0.0,
        0.0,
        2.220446049250313e-16,
        -1.0,
        0.0,
        0.0,
        1.0,
        2.220446049250313e-16,
        0.0,
        0.0,
        0.0,
        0.0,
        1.0
      ],
      "name": "Sketchfab_model"
    },
    {
      "children": [
        2
      ],
      "matrix": [
        0.009999999776482582,
        0.0,
        0.0,
        0.0,
        0.0,
        0.0,
        0.009999999776482582,
        0.0,
        0.0,
        -0.009999999776482582,
        0.0,
        0.0,
        0.0,
        0.0,
        0.0,
        1.0
      ],
      "name": "5a34333262c344398334eda53477bc0b.fbx"
    },
    {
      "children": [
        3
      ],
      "name": "RootNode"
    },
    {
      "children": [
        4
      ],
      "matrix": [
        1.4699151334801423e-05,
        -46.82503890990979,
        -5.803255148251575e-13,
        0.0,
        -46.82503890990927,
        -1.4699151324404175e-05,
        7.070384167989494e-06,
        0.0,
        -7.070384167989326e-06,
        -1.6391845857785022e-12,
        -46.82503890991157,
        0.0,
        47.9876594543457,
        82.8987808227539,
        9.65363324212376e-06,
        1.0
      ],
      "name": "BezierCurve"
    },
    {
      "mesh": 0,
      "name": "BezierCurve_Material.001_0"
    }
  ],
  "samplers": [
    {
      "magFilter": 9729,
      "minFilter": 9987,
      "wrapS": 10497,
      "wrapT": 10497
    }
  ],
  "scene": 0,
  "scenes": [
    {
      "name": "Sketchfab_Scene",
      "nodes": [
        0
      ]
    }
  ],
  "textures": [
    {
      "sampler": 0,
      "source": 0
    },
    {
      "sampler": 0,
      "source": 1
    }
  ]
}
