{
  "accessors": [
    {
      "bufferView": 2,
      "componentType": 5126,
      "count": 699,
      "max": [
        39.162349700927734,
        37.245609283447266,
        50.0
      ],
      "min": [
        -39.162349700927734,
        -37.24560546875,
        0.6151561737060547
      ],
      "type": "VEC3"
    },
    {
      "bufferView": 2,
      "byteOffset": 8388,
      "componentType": 5126,
      "count": 699,
      "max": [
        0.9198933243751526,
        0.9672331809997559,
        1.0
      ],
      "min": [
        -0.9198932647705078,
        -0.9672330617904663,
        -1.0
      ],
      "type": "VEC3"
    },
    {
      "bufferView": 1,
      "componentType": 5126,
      "count": 699,
      "max": [
        0.35905390977859497,
        0.7425618767738342
      ],
      "min": [
        0.005873173009604216,
        0.6360642910003662
      ],
      "type": "VEC2"
    },
    {
      "bufferView": 0,
      "componentType": 5125,
      "count": 2928,
      "type": "SCALAR"
    },
    {
      "bufferView": 2,
      "byteOffset": 16776,
      "componentType": 5126,
      "count": 45810,
      "max": [
        103.92967987060547,
        114.51180267333984,
        34.91990280151367
      ],
      "min": [
        -27.653013229370117,
        -120.99475860595703,
        -81.19566345214844
      ],
      "type": "VEC3"
    },
    {
      "bufferView": 2,
      "byteOffset": 566496,
      "componentType": 5126,
      "count": 45810,
      "max": [
        0.9999634623527527,
        0.9998787045478821,
        1.0
      ],
      "min": [
        -0.9998201131820679,
        -0.999962329864502,
        -0.9999863505363464
      ],
      "type": "VEC3"
    },
    {
      "bufferView": 1,
      "byteOffset": 5592,
      "componentType": 5126,
      "count": 45810,
      "max": [
        0.4968341290950775,
        0.49002471566200256
      ],
      "min": [
        0.07934294641017914,
        0.25734180212020874
      ],
      "type": "VEC2"
    },
    {
      "bufferView": 0,
      "byteOffset": 11712,
      "componentType": 5125,
      "count": 117588,
      "type": "SCALAR"
    },
    {
      "bufferView": 2,
      "byteOffset": 1116216,
      "componentType": 5126,
      "count": 9266,
      "max": [
        78.42662048339844,
        51.91421127319336,
        0.635105550289154
      ],
      "min": [
        -88.10748291015625,
        -106.83931732177734,
        -78.45446014404297
      ],
      "type": "VEC3"
    },
    {
      "bufferView": 2,
      "byteOffset": 1227408,
      "componentType": 5126,
      "count": 9266,
      "max": [
        0.9998084902763367,
        0.9998936653137207,
        0.9991634488105774
      ],
      "min": [
        -0.9997961521148682,
        -0.99991774559021,
        -0.9991634488105774
      ],
      "type": "VEC3"
    },
    {
      "bufferView": 1,
      "byteOffset": 372072,
      "componentType": 5126,
      "count": 9266,
      "max": [
        0.4659322500228882,
        0.4960430860519409
      ],
      "min": [
        0.0046277232468128204,
        0.40212517976760864
      ],
      "type": "VEC2"
    },
    {
      "bufferView": 0,
      "byteOffset": 482064,
      "componentType": 5125,
      "count": 35916,
      "type": "SCALAR"
    }
  ],
  "asset": {
    "extras": {
      "author": "Anna Obradow (https://sketchfab.com/AnnaObradow)",
      "license": "CC-BY-4.0 (http://creativecommons.org/licenses/by/4.0/)",
      "source": "https://sketchfab.com/3d-models/low-poly-purple-flowers-fa217fe0c7614f73aa9f4bc59685df73",
      "title": "Low Poly Purple Flowers"
    },
    "generator": "Sketchfab-12.68.0",
    "version": "2.0"
  },
  "bufferViews": [
    {
      "buffer": 0,
      "byteLength": 625728,
      "name": "floatBufferViews",
      "target": 34963
    },
    {
      "buffer": 0,
      "byteLength": 446200,
      "byteOffset": 625728,
      "byteStride": 8,
      "name": "floatBufferViews",
      "target": 34962
    },
    {
      "buffer": 0,
      "byteLength": 1338600,
      "byteOffset": 1071928,
      "byteStride": 12,
      "name": "floatBufferViews",
      "target": 34962
    }
  ],
  "buffers": [
    {
      "byteLength": 2410528,
      "uri": "scene.bin"
    }
  ],
  "images": [
    {
      "uri": "textures/MadeiraHouse_baseColor.png"
    }
  ],
  "materials": [
    {
      "doubleSided": true,
      "name": "MadeiraHouse",
      "pbrMetallicRoughness": {
        "baseColorTexture": {
          "index": 0
        },
        "metallicFactor": 0.0,
        "roughnessFactor": 0.6
      }
    }
  ],
  "meshes": [
    {
      "name": "PotWhite_MadeiraHouse_0",
      "primitives": [
        {
          "attributes": {
            "NORMAL": 1,
            "POSITION": 0,
            "TEXCOORD_0": 2
          },
          "indices": 3,
          "material": 0,
          "mode": 4
        }
      ]
    },
    {
      "name": "FlowerViolett_MadeiraHouse_0",
      "primitives": [
        {
          "attributes": {
            "NORMAL": 5,
            "POSITION": 4,
            "TEXCOORD_0": 6
          },
          "indices": 7,
          "material": 0,
          "mode": 4
        }
      ]
    },
    {
      "name": "FLowerLeafs_MadeiraHouse_0",
      "primitives": [
        {
          "attributes": {
            "NORMAL": 9,
            "POSITION": 8,
            "TEXCOORD_0": 10
          },
          "indices": 11,
          "material": 0,
          "mode": 4
        }
      ]
    }
  ],
  "nodes": [
    {
      "children": [
        1
      ],
      "matrix": [
        1.0,
        0.0,
        0.0,
        0.0,
        0.0,
        2.220446049250313e-16,
        -1.0,
        0.0,
        0.0,
        1.0,
        2.220446049250313e-16,
        0.0,
        0.0,
        0.0,
        0.0,
        1.0
      ],
      "name": "Sketchfab_model"
    },
    {
      "children": [
        2
      ],
      "matrix": [
        1.0,
        0.0,
        0.0,
        0.0,
        0.0,
        0.0,
        1.0,
        0.0,
        0.0,
        -1.0,
        0.0,
        0.0,
        0.0,
        0.0,
        0.0,
        1.0
      ],
      "name": "7594f3fea56149bab846dc99591597a0.fbx"
    },
    {
      "children": [
        3,
        5,
        8
      ],
      "name": "RootNode"
    },
    {
      "children": [
        4
      ],
      "matrix": [
        1.0,
        0.0,
        0.0,
        0.0,
        0.0,
        2.220446049250313e-16,
        -1.0,
        0.0,
        0.0,
        1.330101490020752,
        2.9534185986185334e-16,
        0.0,
        0.0,
        1.21356201171875,
        0.0,
        1.0
      ],
      "name": "PotWhite"
    },
    {
      "mesh": 0,
      "name": "PotWhite_MadeiraHouse_0"
    },
    {
      "children": [
        6
      ],
      "matrix": [
        1.0,
        0.0,
        0.0,
        0.0,
        0.0,
        0.9999999999999867,
        1.6292068494294582e-07,
        0.0,
        0.0,
        -1.6292068494294582e-07,
        0.9999999999999867,
        0.0,
        -7.491069793701172,
        35.46824645996094,
        5.472041606903076,
        1.0
      ],
      "name": "FlowerViolett"
    },
    {
      "children": [
        7
      ],
      "matrix": [
        1.0,
        0.0,
        -0.0,
        0.0,
        0.0,
        1.0,
        0.0,
        0.0,
        0.0,
        0.0,
        1.0,
        0.0,
        -13.678218841552734,
        118.6854019165039,
        -0.18992388248443604,
        1.0
      ],
      "name": "Object_6"
    },
    {
      "mesh": 1,
      "name": "FlowerViolett_MadeiraHouse_0"
    },
    {
      "children": [
        9
      ],
      "matrix": [
        0.7305062692697258,
        5.960464700174613e-08,
        0.8943844183731877,
        0.0,
        -0.8163183944293471,
        0.47184665795796704,
        0.6667442594888328,
        0.0,
        -0.365441878750974,
        -1.0540036188955972,
        0.2984819959077344,
        0.0,
        2.1444668769836426,
        56.47197723388672,
        1.3676806688308716,
        1.0
      ],
      "name": "FLowerLeafs"
    },
    {
      "children": [
        10
      ],
      "matrix": [
        1.0,
        0.0,
        -0.0,
        0.0,
        0.0,
        1.0,
        0.0,
        0.0,
        0.0,
        0.0,
        1.0,
        0.0,
        -0.7190170288085938,
        46.16553497314453,
        2.0424375534057617,
        1.0
      ],
      "name": "Object_9"
    },
    {
      "mesh": 2,
      "name": "FLowerLeafs_MadeiraHouse_0"
    }
  ],
  "samplers": [
    {
      "magFilter": 9729,
      "minFilter": 9987,
      "wrapS": 10497,
      "wrapT": 10497
    }
  ],
  "scene": 0,
  "scenes": [
    {
      "name": "Sketchfab_Scene",
      "nodes": [
        0
      ]
    }
  ],
  "textures": [
    {
      "sampler": 0,
      "source": 0
    }
  ]
}
